<?xml version="1.0" encoding="UTF-8"?>
<svg xmlns="http://www.w3.org/2000/svg" viewBox="0 0 256 256" width="256" height="256" role="img" aria-label="Kronos Studio"><defs>
    <linearGradient id="g4" x1="0" y1="0" x2="1" y2="1"><stop offset="0" stop-color="#A88BFF"/><stop offset="1" stop-color="#6A45F5"/></linearGradient>
    <linearGradient id="t5" x1="0" y1="0" x2="0" y2="1"><stop offset="0" stop-color="#1A2029"/><stop offset="1" stop-color="#0D1015"/></linearGradient>
    <linearGradient id="t5s" x1="0" y1="0" x2="0" y2="1"><stop offset="0" stop-color="#FFFFFF" stop-opacity=".18"/><stop offset=".55" stop-color="#FFFFFF" stop-opacity="0"/></linearGradient></defs><rect x="8" y="8" width="240" height="240" rx="56" fill="url(#t5)"/>
      <rect x="8.5" y="8.5" width="239" height="239" rx="55.5" fill="none" stroke="rgba(255,255,255,.07)"/>
      <circle cx="128" cy="128" r="96" fill="none" stroke="#A88BFF" stroke-opacity=".45" stroke-width="4" stroke-dasharray="210 90 150 154" transform="rotate(-150 128 128)"/>
      <g transform="translate(-12 -10) scale(.94) translate(8 8)"><g fill="url(#g4)">
    <rect x="78" y="62" width="30" height="132" rx="3"/>
    <path d="M108 114 L172 62 H210 L108 152 Z"/>
    <path d="M126 136 L150 116 L212 194 H172 Z"/></g></g>
      <circle cx="186" cy="186" r="42" fill="url(#g4)" stroke="#0D1015" stroke-width="8"/>
      <g transform="translate(186 186) scale(.36) translate(-128 -128)"><g fill="none" stroke="#FFFFFF" stroke-width="20" stroke-linecap="round" stroke-linejoin="round">
        <path d="M98 82 L56 128 L98 174"/><path d="M158 82 L200 128 L158 174"/></g>
        <path d="M140 74 L116 182" stroke="rgba(255,255,255,.75)" stroke-width="14" stroke-linecap="round" opacity="1"/></g></svg>
